<?xml version="1.0" encoding="UTF-8"?><svg id="Layer_4" xmlns="http://www.w3.org/2000/svg" viewBox="0 0 187.53 41"><defs><style>.cls-1,.cls-2,.cls-3{stroke-width:0px;}.cls-2{fill:#6c94ec;}.cls-3{fill:#fff;}</style></defs><rect class="cls-2" x="46.17" y="6.09" width="17.5" height="4.1" rx=".7" ry=".7"/><path class="cls-1" d="m62.97,6.59c.11,0,.2.09.2.2v2.7c0,.11-.09.2-.2.2h-16.1c-.11,0-.2-.09-.2-.2v-2.7c0-.11.09-.2.2-.2h16.1m0-1h-16.1c-.66,0-1.2.54-1.2,1.2v2.7c0,.66.54,1.2,1.2,1.2h16.1c.66,0,1.2-.54,1.2-1.2v-2.7c0-.66-.54-1.2-1.2-1.2h0Z"/><rect class="cls-2" x="156.83" y="14.12" width="4.1" height="16.8" rx=".7" ry=".7"/><path class="cls-1" d="m160.23,14.62c.11,0,.2.09.2.2v15.4c0,.11-.09.2-.2.2h-2.7c-.11,0-.2-.09-.2-.2v-15.4c0-.11.09-.2.2-.2h2.7m0-1h-2.7c-.66,0-1.2.54-1.2,1.2v15.4c0,.66.54,1.2,1.2,1.2h2.7c.66,0,1.2-.54,1.2-1.2v-15.4c0-.66-.54-1.2-1.2-1.2h0Z"/><rect class="cls-2" x="156.83" y="6.75" width="4.1" height="4.1" rx=".7" ry=".7"/><path class="cls-1" d="m160.23,7.25c.11,0,.2.09.2.2v2.7c0,.11-.09.2-.2.2h-2.7c-.11,0-.2-.09-.2-.2v-2.7c0-.11.09-.2.2-.2h2.7m0-1h-2.7c-.66,0-1.2.54-1.2,1.2v2.7c0,.66.54,1.2,1.2,1.2h2.7c.66,0,1.2-.54,1.2-1.2v-2.7c0-.66-.54-1.2-1.2-1.2h0Z"/><path class="cls-2" d="m75.71,26.85h8.05c.39,0,.7.31.7.7v2.7c0,.39-.31.7-.7.7h-8.05c-.39,0-.7-.31-.7-.7v-2.7c0-.39.31-.7.7-.7Z"/><path class="cls-1" d="m83.76,27.35c.11,0,.2.09.2.2v2.7c0,.11-.09.2-.2.2h-8.05c-.11,0-.2-.09-.2-.2v-2.7c0-.11.09-.2.2-.2h8.05m0-1h-8.05c-.66,0-1.2.54-1.2,1.2v2.7c0,.66.54,1.2,1.2,1.2h8.05c.66,0,1.2-.54,1.2-1.2v-2.7c0-.66-.54-1.2-1.2-1.2h0Z"/><path class="cls-2" d="m69.54,5.95h2.7c.39,0,.7.31.7.7v23.6c0,.39-.31.7-.7.7h-2.7c-.39,0-.7-.31-.7-.7V6.65c0-.39.31-.7.7-.7Z"/><path class="cls-1" d="m72.24,6.45c.11,0,.2.09.2.2v23.6c0,.11-.09.2-.2.2h-2.7c-.11,0-.2-.09-.2-.2V6.65c0-.11.09-.2.2-.2h2.7m0-1h-2.7c-.66,0-1.2.54-1.2,1.2v23.6c0,.66.54,1.2,1.2,1.2h2.7c.66,0,1.2-.54,1.2-1.2V6.65c0-.66-.54-1.2-1.2-1.2h0Z"/><path class="cls-2" d="m46.77,30.86c-.39,0-.7-.32-.7-.7v-15.49c0-.39.32-.7.7-.7h13.25c.39,0,.7.32.7.7v2.69c0,.39-.32.7-.7.7h-9.86v12.1c0,.39-.32.7-.7.7h-2.69Z"/><path class="cls-1" d="m60.03,14.46c.11,0,.2.09.2.2v2.69c0,.11-.09.2-.2.2h-10.15c-.11,0-.2.09-.2.2v12.39c0,.11-.09.2-.2.2h-2.69c-.11,0-.2-.09-.2-.2v-15.49c0-.11.09-.2.2-.2h13.25m0-1h-13.25c-.66,0-1.2.54-1.2,1.2v15.49c0,.66.54,1.2,1.2,1.2h2.69c.66,0,1.2-.54,1.2-1.2v-11.6h9.36c.66,0,1.2-.54,1.2-1.2v-2.69c0-.66-.54-1.2-1.2-1.2h0Z"/><path class="cls-2" d="m24.09,36.09c.78-.3,1.45-.55,2.1-.82.59-.24,1.14-.56,1.66-.94.34-.25.33-.4-.05-.6-1.3-.68-2.21-1.72-2.76-3.09-.93-2.33-.28-5.09,1.61-6.71,1.98-1.71,4.68-2,6.91-.73,3.44,1.95,4.19,6.16,1.62,9.28-2.67,3.23-6.09,4.54-10.25,3.87-.17-.03-.34-.07-.51-.12-.07-.02-.13-.06-.32-.15h0Z"/><path class="cls-2" d="m109.87,21.59s-1.35,0-1.36,0c-.12,0-.34,0-.52-.19-.08-.09-.18-.24-.17-.48,0-.26,0-.52,0-.78,0-.68-.01-1.38.17-2.09.55-2.19,2.48-3.93,4.71-4.22.35-.04.7-.06,1.05-.06h.88c.17,0,.34,0,.52,0,.21,0,.37.01.52.01h.93c.31,0,.72,0,1.15.06,1.43.22,2.63.93,3.57,2.09.05.06.19.24.16.5-.03.17-.12.31-.29.42-.77.52-1.54,1.04-2.31,1.57-.13.09-.26.13-.39.13-.18,0-.34-.07-.49-.22-.32-.33-.71-.48-1.25-.48-.4,0-.77,0-1.14,0h-2.08c-.93,0-1.61.68-1.61,1.61,0,.46,0,.93,0,1.39,0,.08,0,.32-.18.52-.12.13-.3.19-.51.19,0,0-.91,0-1.36,0Z"/><path class="cls-1" d="m115.19,14.28c.17,0,.33.01.5.01.31,0,.62,0,.93,0,.36,0,.71.01,1.07.07,1.34.21,2.41.86,3.26,1.91.07.08.08.13-.02.19-.78.52-1.55,1.05-2.32,1.58-.04.03-.08.04-.11.04-.04,0-.08-.02-.13-.07-.44-.45-.99-.63-1.61-.63-.01,0-.03,0-.04,0-.37,0-.73,0-1.1,0-.59,0-1.18,0-1.78,0-.1,0-.2,0-.3,0-1.21,0-2.1.9-2.11,2.11,0,.47,0,.94,0,1.4,0,.15-.04.2-.19.2,0,0,0,0-.01,0-.45,0-.9,0-1.35,0s-.9,0-1.35,0c0,0-.02,0-.03,0-.1,0-.17,0-.17-.15.03-.92-.07-1.85.16-2.77.5-2,2.24-3.58,4.29-3.84.33-.04.66-.05.99-.05.29,0,.59,0,.88,0,.18,0,.36,0,.55-.01m0-1h-.05c-.16.01-.33.01-.49.01-.14,0-.29,0-.43,0-.15,0-.3,0-.46,0-.3,0-.7,0-1.11.06-2.46.32-4.53,2.16-5.13,4.59-.19.77-.19,1.51-.18,2.22,0,.25,0,.5,0,.76-.01.45.19.72.31.85.22.22.5.34.85.34h1.38c.45,0,.89,0,1.34,0h0c.46,0,.73-.19.89-.34.15-.16.33-.44.33-.88,0-.46,0-.92,0-1.38,0-.67.45-1.12,1.12-1.12h.3s.89,0,.89,0h.89c.37,0,.74,0,1.11,0,0,0,0,0,0,0,.43,0,.7.1.92.33.3.31.62.37.84.37.24,0,.46-.07.67-.22.77-.53,1.54-1.05,2.31-1.57.36-.24.47-.55.5-.76.03-.22.01-.55-.26-.89-1.02-1.26-2.33-2.03-3.88-2.27-.46-.07-.89-.08-1.22-.08-.16,0-.32,0-.48,0-.15,0-.3,0-.45,0s-.3,0-.45-.01h-.05Z"/><path class="cls-2" d="m128.69,30.95c-.43,0-.86-.01-1.29-.01-.4,0-.81,0-1.21.01h-.02c-.14,0-.42,0-.62-.25-.16-.2-.16-.44-.16-.55,0-4.59,0-9.18,0-13.77v-3.62c0-2.02,0-4.04,0-6.06,0-.49.27-.76.75-.76.45,0,.87.01,1.29.01s.85,0,1.27-.01h0c.25,0,.78.08.78.78,0,3.75,0,7.5,0,11.24v2.22l.27-.27c1.86-1.82,3.71-3.64,5.57-5.47.26-.26.55-.38.9-.38.58,0,1.15,0,1.71,0h2.32s.4.55.4.55l-.26.37-.44.42c-.31.3-.61.6-.92.9-2.18,2.19-8.42,8.44-8.42,8.44-.36.36-.72.72-1.09,1.07-.06.05-.07.07-.07.17v1.7c0,.82,0,1.65,0,2.47,0,.16-.02.39-.2.57-.2.2-.46.2-.55.2h-.04Z"/><path class="cls-1" d="m126.13,6.45s.01,0,.02,0c.43,0,.85.01,1.28.01s.85,0,1.28-.01c0,0,0,0,.01,0,.22,0,.26.07.26.28,0,4.77,0,9.54,0,14.31v.28c.19-.07.27-.21.38-.31,2.11-2.06,4.21-4.13,6.31-6.2.16-.16.32-.23.55-.23,0,0,0,0,.01,0,.57,0,1.14,0,1.71,0,.68,0,1.37,0,2.06,0,.02.03.03.05.05.07-.45.44-.91.88-1.36,1.33-2.7,2.7-5.4,5.41-8.09,8.12-.46.46-.92.94-1.4,1.39-.17.16-.23.32-.22.54,0,1.39,0,2.77,0,4.16,0,.21-.06.27-.25.27,0,0-.02,0-.03,0-.44,0-.88-.01-1.32-.01-.4,0-.81,0-1.21.01,0,0-.02,0-.02,0-.22,0-.26-.08-.26-.3,0-5.43,0-10.85,0-16.28,0-2.39,0-4.78,0-7.17,0-.21.05-.26.25-.26m0-1c-.75,0-1.25.51-1.25,1.26,0,2,0,3.99,0,5.98v1.19s0,2.7,0,2.7c0,4.52,0,9.05,0,13.57,0,.96.68,1.3,1.26,1.3.44,0,.84-.01,1.23-.01.44,0,.87,0,1.31.01,0,0,0,0,0,0,.42,0,.72-.12.95-.35.23-.23.35-.55.34-.93,0-.81,0-1.64,0-2.46,0-.53,0-1.06,0-1.58.35-.33.69-.67,1.02-1.01l.31-.31,2.13-2.14c1.99-1.99,3.97-3.99,5.96-5.98.3-.3.6-.59.9-.88l.45-.44.64-.63-.56-.71-.3-.42-.54-.03h-1.03s-1.03,0-1.03,0c-.57,0-1.13,0-1.7,0h0c-.51,0-.92.17-1.28.52-1.66,1.64-3.33,3.27-4.99,4.9v-1.03c0-3.75,0-7.49,0-11.24,0-.78-.49-1.29-1.26-1.29-.45,0-.87.01-1.29.01s-.84,0-1.26,0h0s-.02,0-.02,0h0Z"/><path class="cls-2" d="m94.3,30.96c-1.99,0-3.59-.78-4.76-2.32-.73-.96-1.1-2.07-1.11-3.3,0-.59,0-1.18,0-1.78v-3.77c.02-2.87,2.08-5.23,4.92-5.62.2-.03.4-.03.6-.03,0,0,.43,0,.51,0h0c.36,0,.67.21.67.66v.15c0,.87,0,1.73,0,2.6,0,.41-.26.68-.66.68h-.28c-.16,0-.32,0-.48.04-.7.18-1.18.78-1.18,1.5v5.45c0,.93.65,1.6,1.59,1.61.79.02,1.01.24,1.01,1.02v.58c0,.58,0,1.16,0,1.74,0,.11,0,.36-.19.56-.19.2-.46.2-.54.2h-.1Z"/><path class="cls-1" d="m94.49,14.64c.12,0,.14.06.14.17,0,.92,0,1.84,0,2.75,0,.13-.04.18-.16.18,0,0,0,0-.01,0-.09,0-.18,0-.27,0-.2,0-.4,0-.6.06-.92.23-1.56,1.04-1.56,1.99,0,1.82,0,3.64,0,5.45,0,1.2.88,2.09,2.08,2.11q.52.01.52.52c0,.78,0,1.56,0,2.33,0,.19-.03.25-.24.26-.03,0-.06,0-.1,0-1.79,0-3.26-.67-4.36-2.12-.67-.88-1-1.89-1.01-3-.01-.94,0-1.88,0-2.81,0-.91,0-1.82,0-2.73.01-2.59,1.91-4.77,4.48-5.12.18-.02.35-.03.53-.03.09,0,.18,0,.27,0s.18,0,.27,0c0,0,.01,0,.02,0m0-1h-.06c-.08,0-.15,0-.23,0h-.13s-.14,0-.14,0c-.2,0-.43,0-.67.04-3.08.42-5.33,2.99-5.35,6.11,0,.61,0,1.22,0,1.82v.91s0,1.02,0,1.02c0,.6,0,1.2,0,1.8,0,1.33.42,2.54,1.21,3.59,1.27,1.67,3,2.51,5.16,2.51h.11c.37,0,.67-.13.9-.36.34-.35.33-.78.33-.92,0-.58,0-1.16,0-1.73v-.59c0-1.06-.43-1.5-1.5-1.52-.66-.01-1.1-.46-1.1-1.11v-1.82c0-1.21,0-2.42,0-3.63,0-.49.33-.89.81-1.02.1-.02.23-.03.35-.03h.16s.1,0,.1,0c.7,0,1.18-.49,1.18-1.18,0-.92,0-1.84,0-2.75,0-.77-.57-1.17-1.14-1.17h0Z"/><path class="cls-2" d="m97.92,30.96c-.22,0-.74-.08-.73-.76,0-.58,0-1.16,0-1.74v-.58c0-.78.22-1,1.01-1.02.94-.02,1.59-.68,1.59-1.61v-5.45c0-.72-.48-1.32-1.18-1.5-.15-.04-.32-.04-.47-.04,0,0-.26,0-.27,0-.22,0-.39-.07-.51-.2-.17-.18-.17-.41-.17-.48,0-.92,0-1.84,0-2.75,0-.46.32-.67.64-.67.12,0,.42,0,.42,0h.13c.2,0,.4,0,.6.03,2.83.39,4.9,2.75,4.91,5.62v3.78c0,.59,0,1.18,0,1.77,0,1.23-.38,2.34-1.11,3.3-1.17,1.54-2.77,2.32-4.76,2.32h-.1Z"/><path class="cls-1" d="m97.83,14.64s.01,0,.02,0c.09,0,.18,0,.27,0s.18,0,.27,0c.18,0,.36,0,.53.03,2.57.35,4.47,2.53,4.48,5.12,0,.91,0,1.82,0,2.73,0,.94,0,1.87,0,2.81,0,1.11-.34,2.12-1.01,3-1.1,1.44-2.57,2.12-4.36,2.12-.03,0-.06,0-.1,0-.21,0-.24-.07-.24-.26.01-.78,0-1.56,0-2.33q0-.51.52-.52c1.2-.02,2.08-.92,2.08-2.11,0-1.82,0-3.64,0-5.45,0-.95-.64-1.75-1.56-1.99-.2-.05-.4-.06-.6-.06-.09,0-.18,0-.27,0,0,0,0,0-.01,0-.12,0-.16-.04-.16-.18,0-.92,0-1.84,0-2.75,0-.11.02-.17.14-.17m0-1c-.57,0-1.14.4-1.14,1.17,0,.92,0,1.83,0,2.75,0,.69.49,1.18,1.16,1.18h.12s.16,0,.16,0c.12,0,.25,0,.35.03.48.12.8.53.8,1.02,0,1.21,0,2.42,0,3.63v1.82c0,.65-.44,1.1-1.1,1.11-1.06.02-1.5.46-1.5,1.52v.59c0,.58,0,1.16,0,1.73,0,.14,0,.57.33.92.22.23.53.35.9.36h.11c2.15,0,3.89-.84,5.16-2.51.8-1.05,1.2-2.26,1.21-3.6,0-.6,0-1.2,0-1.8v-1.02s0-.91,0-.91c0-.61,0-1.21,0-1.82-.02-3.12-2.26-5.69-5.35-6.11-.24-.03-.47-.04-.67-.04h-.14s-.13,0-.13,0c-.07,0-.15,0-.22,0h-.02s-.04,0-.04,0h0Z"/><path class="cls-2" d="m171.3,30.96c-1.99,0-3.59-.78-4.76-2.32-.73-.96-1.1-2.07-1.11-3.3,0-.6,0-1.19,0-1.79v-3.76c.01-2.87,2.08-5.23,4.92-5.62.2-.03.4-.03.6-.03,0,0,.43,0,.51,0h0c.36,0,.67.21.67.66v.3c0,.82,0,1.63,0,2.45,0,.41-.26.68-.66.68h-.28c-.16,0-.32,0-.48.04-.7.18-1.18.78-1.18,1.5v5.45c0,.93.65,1.6,1.59,1.61.79.02,1.01.24,1.01,1.02v.56c0,.59,0,1.18,0,1.77,0,.11,0,.36-.19.56-.19.2-.46.2-.54.21h-.1Z"/><path class="cls-1" d="m171.49,14.64c.12,0,.14.06.14.17,0,.92,0,1.84,0,2.75,0,.13-.04.18-.16.18,0,0,0,0-.01,0-.09,0-.18,0-.27,0-.2,0-.4,0-.6.06-.92.23-1.56,1.04-1.56,1.99,0,1.82,0,3.64,0,5.45,0,1.2.88,2.09,2.08,2.11q.52.01.52.52c0,.78,0,1.56,0,2.33,0,.19-.03.25-.24.26-.03,0-.06,0-.1,0-1.79,0-3.26-.67-4.36-2.12-.67-.88-1-1.89-1.01-3-.01-.94,0-1.88,0-2.81,0-.91,0-1.82,0-2.73.01-2.59,1.91-4.77,4.48-5.12.18-.02.35-.03.53-.03.09,0,.18,0,.27,0s.18,0,.27,0c0,0,.01,0,.02,0m0-1h-.06c-.08,0-.15,0-.23,0h-.13s-.14,0-.14,0c-.2,0-.43,0-.67.04-3.08.42-5.33,2.99-5.35,6.11,0,.61,0,1.22,0,1.82v.91s0,1.02,0,1.02c0,.6,0,1.2,0,1.8,0,1.33.42,2.54,1.21,3.59,1.27,1.67,3,2.51,5.16,2.51h.11c.37,0,.67-.13.9-.36.34-.35.33-.78.33-.92,0-.58,0-1.16,0-1.73v-.59c0-1.06-.43-1.5-1.5-1.52-.66-.01-1.1-.46-1.1-1.11v-1.82c0-1.21,0-2.42,0-3.63,0-.49.33-.89.81-1.02.1-.02.23-.03.35-.03h.16s.1,0,.1,0c.7,0,1.18-.49,1.18-1.18,0-.92,0-1.84,0-2.75,0-.77-.57-1.17-1.14-1.17h0Z"/><path class="cls-2" d="m174.92,30.96c-.09,0-.35,0-.54-.2-.19-.2-.19-.45-.19-.56,0-.57,0-1.14,0-1.72v-.61c0-.78.22-1,1.01-1.02.94-.02,1.59-.68,1.59-1.61v-5.45c0-.72-.48-1.32-1.18-1.5-.15-.04-.32-.04-.47-.04,0,0-.26,0-.27,0-.22,0-.39-.07-.51-.2-.17-.18-.17-.41-.17-.48,0-.92,0-1.84,0-2.75,0-.46.32-.67.64-.67.12,0,.42,0,.42,0h.13c.2,0,.4,0,.6.03,2.83.39,4.9,2.75,4.91,5.62v3.78c0,.59,0,1.18,0,1.77,0,1.23-.38,2.34-1.11,3.3-1.17,1.54-2.77,2.32-4.76,2.32h-.1Z"/><path class="cls-1" d="m174.83,14.64s.01,0,.02,0c.09,0,.18,0,.27,0s.18,0,.27,0c.18,0,.36,0,.53.03,2.57.35,4.47,2.53,4.48,5.12,0,.91,0,1.82,0,2.73,0,.94,0,1.87,0,2.81,0,1.11-.34,2.12-1.01,3-1.1,1.44-2.57,2.12-4.36,2.12-.03,0-.06,0-.1,0-.21,0-.24-.07-.24-.26.01-.78,0-1.56,0-2.33q0-.51.52-.52c1.2-.02,2.08-.92,2.08-2.11,0-1.82,0-3.64,0-5.45,0-.95-.64-1.75-1.56-1.99-.2-.05-.4-.06-.6-.06-.09,0-.18,0-.27,0,0,0,0,0-.01,0-.12,0-.16-.04-.16-.18,0-.92,0-1.84,0-2.75,0-.11.02-.17.14-.17m0-1c-.57,0-1.14.4-1.14,1.17,0,.92,0,1.83,0,2.75,0,.69.49,1.18,1.16,1.18h.12s.16,0,.16,0c.12,0,.25,0,.35.03.48.12.8.53.8,1.02,0,1.21,0,2.42,0,3.63v1.82c0,.65-.44,1.1-1.1,1.11-1.06.02-1.5.46-1.5,1.52v.59c0,.58,0,1.16,0,1.73,0,.14,0,.57.33.92.22.23.53.35.9.36h.11c2.15,0,3.89-.84,5.16-2.51.8-1.05,1.2-2.26,1.21-3.6,0-.6,0-1.2,0-1.8v-1.02s0-.91,0-.91c0-.61,0-1.21,0-1.82-.02-3.12-2.26-5.69-5.35-6.11-.24-.03-.47-.04-.67-.04h-.14s-.13,0-.13,0c-.07,0-.15,0-.22,0h-.02s-.04,0-.04,0h0Z"/><path class="cls-2" d="m115.09,30.95c-.14,0-.26,0-.39,0h-.85c-.33,0-.67,0-1.01-.04-2.75-.33-4.91-2.75-4.93-5.5v-.53c0-.33,0-.66,0-.98,0-.1,0-.35.18-.54.19-.2.44-.2.53-.2.47,0,.94,0,1.4,0,.42,0,1.27,0,1.27,0,.1,0,.35,0,.54.2.19.2.18.45.18.54,0,.31,0,.62,0,.94v.37c0,.98.68,1.66,1.66,1.66h3.18c.56,0,.97-.17,1.29-.54.15-.17.32-.25.51-.25.18,0,.32.08.42.14.74.49,1.49.98,2.25,1.46.08.05.3.19.34.47.05.28-.11.48-.17.56-1.11,1.43-2.59,2.18-4.4,2.26-.22,0-.45,0-.68,0h-1.31Z"/><path class="cls-1" d="m108.61,23.64c.48,0,.95,0,1.43,0,.41,0,.83,0,1.24,0,0,0,0,0,.01,0,.16,0,.21.05.21.22-.01.44,0,.88,0,1.32,0,1.26.9,2.16,2.16,2.16.24,0,.48,0,.72,0,.43,0,.86,0,1.28,0,.39,0,.78,0,1.17,0,0,0,0,0,.01,0,.66,0,1.22-.21,1.66-.71.05-.06.09-.08.13-.08.04,0,.08.02.14.06.75.5,1.5.99,2.26,1.47.15.1.15.16.05.3-1.02,1.32-2.37,2-4.03,2.06-.22,0-.44.01-.67.01-.4,0-.82,0-1.3,0-.12,0-.25,0-.39,0-.27,0-.55,0-.85,0-.31,0-.63,0-.96-.05-2.47-.3-4.47-2.52-4.49-5.01,0-.51,0-1.01,0-1.52,0-.16.02-.23.21-.23m0-1h0c-.36,0-.66.12-.88.34-.34.34-.33.76-.33.9,0,.33,0,.65,0,.97v.53c.02,3,2.38,5.64,5.37,6,.32.04.65.06,1.08.06.16,0,.31,0,.46,0,.13,0,.26,0,.39,0,.12,0,.23,0,.34,0h.03s.03,0,.03,0c.25,0,.48,0,.7,0,.21,0,.41,0,.6,0,.24,0,.47,0,.71-.01,1.97-.08,3.58-.9,4.78-2.45.24-.31.32-.63.27-.95-.06-.33-.25-.6-.56-.8-.76-.48-1.5-.97-2.25-1.47-.08-.05-.33-.22-.69-.22-.23,0-.58.07-.89.42-.23.26-.51.37-.91.37-.4,0-.79,0-1.19,0h-.64s-.64,0-.64,0h-.72c-.7,0-1.16-.46-1.16-1.16v-.37c0-.31,0-.61,0-.92.01-.37-.1-.67-.32-.9-.15-.16-.43-.35-.88-.35-.43,0-.84,0-1.25,0-.47,0-.95,0-1.42,0h0Z"/><path class="cls-2" d="m136.55,30.95c-.28,0-.51-.13-.66-.37-1.1-1.7-2.21-3.39-3.33-5.09-.29-.45-.11-.78.1-.98.64-.62,1.27-1.25,1.89-1.89.07-.08.27-.27.55-.27.35,0,.54.29.61.4,1.25,1.96,2.51,3.91,3.77,5.86l1.51,2.35h-4.44s0,0,0,0Z"/><path class="cls-1" d="m135.1,22.84c.06,0,.12.06.19.17,1.32,2.06,2.65,4.12,3.98,6.18.26.4.52.81.81,1.26-.61,0-1.2,0-1.79,0s-1.16,0-1.74,0c-.12,0-.18-.05-.24-.14-1.11-1.7-2.22-3.4-3.33-5.09-.09-.13-.11-.21.03-.34.64-.62,1.28-1.26,1.91-1.9.08-.08.14-.12.19-.12m0-1h0c-.5,0-.81.32-.91.42-.59.61-1.2,1.22-1.89,1.88-.17.17-.71.78-.17,1.61,1.12,1.7,2.23,3.39,3.33,5.09.31.49.76.6,1.08.6.58,0,1.16,0,1.74,0h.88s.91,0,.91,0h1.83l-.99-1.54-.18-.28c-.22-.34-.43-.66-.64-.98-1.33-2.05-2.65-4.11-3.97-6.17-.27-.42-.61-.63-1.03-.63h0Z"/><path class="cls-2" d="m148.89,30.96c-1.13,0-2.03-.91-2.05-2.06,0-.52.2-1.02.59-1.41.39-.4.92-.62,1.46-.62,1.15,0,2.05.9,2.05,2.05s-.9,2.05-2.04,2.05h0Z"/><path class="cls-1" d="m148.89,27.36s0,0,0,0c.87,0,1.54.68,1.54,1.55s-.68,1.55-1.54,1.55c0,0,0,0,0,0-.85,0-1.54-.69-1.55-1.57-.01-.82.71-1.53,1.55-1.53m0-1c-.67,0-1.33.28-1.82.77-.48.49-.74,1.12-.73,1.77.02,1.43,1.14,2.55,2.54,2.55,1.43,0,2.55-1.12,2.55-2.55s-1.12-2.55-2.54-2.55h0Z"/><circle class="cls-3" cx="13.64" cy="18.45" r="5.25"/><path class="cls-1" d="m13.64,24.45c-3.31,0-6-2.69-6-6s2.69-6,6-6,6,2.69,6,6-2.69,6-6,6Zm0-10.5c-2.48,0-4.5,2.02-4.5,4.5s2.02,4.5,4.5,4.5,4.5-2.02,4.5-4.5-2.02-4.5-4.5-4.5Z"/><circle class="cls-2" cx="30.64" cy="8.45" r="5.25"/><path class="cls-1" d="m30.65,14.45c-2.08,0-4.1-1.08-5.21-3-.8-1.39-1.01-3-.6-4.55.42-1.55,1.41-2.84,2.8-3.64,2.86-1.66,6.54-.67,8.19,2.2h0c.8,1.39,1.01,3,.6,4.55-.41,1.55-1.41,2.84-2.79,3.64-.94.54-1.97.8-2.99.8Zm-.02-10.5c-.76,0-1.54.19-2.24.6-1.04.6-1.79,1.57-2.1,2.73-.31,1.16-.15,2.37.45,3.41,1.24,2.15,4,2.89,6.15,1.65,1.04-.6,1.79-1.57,2.1-2.73.31-1.16.15-2.37-.45-3.41-.83-1.44-2.35-2.25-3.9-2.25Z"/><path class="cls-1" d="m33.56,23.2c-2.23-1.26-4.93-.97-6.91.73-1.88,1.63-2.54,4.38-1.61,6.71.45,1.13,1.15,2.04,2.12,2.7,0,0,0,0,0,0,0,0,0,0,0,0,.2.14.42.27.64.39.38.2.39.35.05.6-.18.14-.37.26-.56.38,0,0,0,0,0,0-.03.02-.05.03-.08.05,0,0,0,0-.01,0-.32.19-.65.36-1,.5-.01,0-.03.01-.04.02-.37.15-.74.29-1.13.44,0,0,0,0,0,0-.07.03-.15.06-.22.09-.1.04-.2.08-.3.11,0,0,0,0,0,0-.13.05-.26.1-.4.15,0,0,0,0,0,0,0,0,0,0,0,0h0c.07.03.13.06.17.08.07.03.11.05.15.06.17.05.34.09.51.12.49.08.96.13,1.43.15,3.52.18,6.47-1.18,8.82-4.03,2.58-3.12,1.83-7.33-1.62-9.28Zm-4.55,9.62c-.15-.14-.32-.26-.54-.37-.97-.51-1.65-1.27-2.08-2.34-.7-1.77-.21-3.85,1.21-5.08.89-.77,1.95-1.17,3.02-1.17.76,0,1.52.2,2.22.6,1.27.72,2.1,1.84,2.34,3.15.25,1.35-.15,2.75-1.13,3.94-1.37,1.66-2.91,2.71-4.69,3.2.11-.22.19-.5.17-.84-.04-.53-.31-.89-.53-1.1Z"/></svg>